<?xml version="1.0" standalone="no"?>
<svg width="800" height="800" xmlns="http://www.w3.org/2000/svg" id="stage-svg" xmlns:xlink="http://www.w3.org/1999/xlink" preserveAspectRatio="none" viewBox="0 0 385 385"><g transform=""><g class="active-stage-item" transform=""><defs><path fill="#000000" d="M29.7 20q.25.15.55.15l.05-.05q.45-.3.45-.75 0-.05-.25-.65L2.35 0l-.1.1Q1.8 1.35 0 2.65q.1.25.4.45L29.7 20M74.5 3.1q.3-.2.4-.45-1.8-1.3-2.25-2.55l-.1-.1L44.4 18.7q-.25.6-.25.65 0 .45.45.75l.05.05q.3 0 .55-.15L74.5 3.1z" id="FacBro004__Symbol_4_0_Layer0_0_FILL"/></defs><use xmlns:xlink="http://www.w3.org/1999/xlink" xlink:href="#FacBro004__Symbol_4_0_Layer0_0_FILL" transform="translate(155 121.05)" id="FacBro004__col1n"/></g></g></svg>