<?xml version="1.0" standalone="no"?>
<svg width="800" height="800" xmlns="http://www.w3.org/2000/svg" id="stage-svg" xmlns:xlink="http://www.w3.org/1999/xlink" preserveAspectRatio="none" viewBox="0 0 385 385"><g transform=""><g class="active-stage-item" transform=""><defs><path fill="#434343" d="M63.85 8.85q-.05-.05-.05-.1l.05.05q1.75-1.35 3.6-2.65-.25-.8-.65-1.55-.4-.8-.9-1.4-6.65-6.4-14.95 0-.4.25-.7.55-1.15 1.1-1.55 2.4-2.1-2.55-9.6-2.55-8.1 0-10.15 7.15-2.2-1.4-5.15-1.4-5.55 0-8.6 2.35l.2-.3q-1.35.85-2.3 2.2l-.3.5q-.85 1.3-1.2 2.9-1.65 4.4 1.05 7.85-5.2-.2-8.85 2.85-2.25 2.4-2.25 6.95 0 2.6 1.25 5.4.75 1.65 1.85 2.75-.15-.25-.25-.5 1.3 1.5 3.1 2.05l-.35.35Q3.6 46.85 3.2 47.4q-.7.75-1.25 1.6-1.8 2.6-1.8 5.45v.9q-1 6.1 4.3 8.25.95.4 1.65.6-.6.2-1.15.45-.5.2-.95.5-.95.55-1.55 1.35Q1.3 68 1.3 71.55q0 2.75 2.45 6.1l-.2-.25q1.8 2.6 4.7 3.75-1.45 3.5-1.45 6.15v.5q0 .4.05.85.25 1.65 1.45 3.5 2.45 3.75 7.5 3.75h.75v.2q0 .15-.1 1.9v.5q0 1.95.55 3.6 1.6 5.05 7.65 5.05 1.9 0 3.5-.6 2-.85 3.5-2.65 1.2-1.5 1.65-2.7v-.05q0-.1.6.4v.05h.05q5.85 3.25 10.55.25.4-.3.75-.6 1.05-1.05 1.3-2.1.9-1.75 1.15-5.05l.05-2.4v-.25q0-2.65-1.2-4.85-.15-.25-.25-.5.2 0 .4.05.25.05.3.1l.2-.1q6-.05 6.9-6.55v.5q0 .1-.25 1.7.65-1.95.65-4.7 0-2.15-.15-2.7-.35-1.05-2-3.1-.3-.4-.65-.7-.35-.45-.65-.7h1.2q5.75 0 6.75-6.6l-.3 1.1q0-.2.1-.8.05-.4.2-.9.25-1.45.25-1.55 0-.4-.05-.8-.45-4.15-4.6-5.05.35-.1.75-.25l-.2.1q.15-.05.25-.1.05-.05.1-.05.25-.1.45-.2 2.4-.95 3.5-2.2-.1.15-.25.35 1.05-1.1 1.25-1.7.3-.85.3-3.85.05-1.45-.25-2.85v-.05q-1.05-2.05-2.2-3.1-.15-.15-.3-.25-1.3-1.1-3.15-1.2l-1.9-.15q.25-.25.5-.55 1-1.2 1.6-2.2.25-.4.45-.8.1-.15.2-.25 0-.05.3-1.05.1.1 0-1.05-.4-5.35-5.35-6.45-1.4-.6-3.4-.6h-.5l.1-.1q-.45-.15-.85-.3 3.65-4.6 8-8.95 4.75-4.75 9.85-8.65m179.2 46.5v-.9q0-2.85-1.8-5.45-.55-.85-1.25-1.6-.4-.55-3.95-2.7l-.35-.35q1.8-.55 3.1-2.05-.1.25-.25.5 1.1-1.1 1.85-2.75 1.25-2.8 1.25-5.4 0-4.55-2.25-6.95-3.65-3.05-8.85-2.85 2.7-3.45 1.05-7.85-.35-1.6-1.2-2.9l-.3-.5q-.95-1.35-2.3-2.2l.2.3q-3.05-2.35-8.6-2.35-2.95 0-5.15 1.4Q212.2 3.6 204.1 3.6q-7.5 0-9.6 2.55-.4-1.3-1.55-2.4-.3-.3-.7-.55-8.3-6.4-14.95 0-.5.6-.9 1.4-.4.75-.65 1.55 1.85 1.3 3.6 2.65l.05-.05q0 .05-.05.1 5.1 3.9 9.85 8.65 4.35 4.35 8 8.95-.4.15-.85.3l.1.1h-.5q-2 0-3.4.6-4.95 1.1-5.35 6.45-.1 1.15 0 1.05.3 1 .3 1.05.1.1.2.25.2.4.45.8.6 1 1.6 2.2.25.3.5.55l-1.9.15q-1.85.1-3.15 1.2-.15.1-.3.25-1.15 1.05-2.2 3.1v.05q-.3 1.4-.25 2.85 0 3 .3 3.85.2.6 1.25 1.65l-.15-.2q1.106 1.192 3.4 2.1.2.1.45.2.05 0 .1.05.1.05.25.1l-.2-.1q.4.15.75.25-4.15.9-4.6 5.05-.05.4-.05.8 0 .1.25 1.55.15.5.2.9.1.6.1.8l-.3-1.1q1 6.6 6.75 6.6h1.2q-.3.25-.65.7-.35.3-.65.7-1.65 2.05-2 3.1-.15.55-.15 2.7 0 2.75.65 4.7-.25-1.6-.25-1.7v-.5q.9 6.5 6.9 6.55l.2.1q.05-.05.3-.1.2-.05.4-.05-.1.25-.25.5-1.2 2.2-1.2 4.85v.25l.05 2.4q.25 3.3 1.15 5.05.25 1.05 1.3 2.1.35.3.75.6 4.7 3 10.55-.25h.05v-.05q.6-.5.6-.4v.05q.45 1.2 1.65 2.7 1.5 1.8 3.5 2.65 1.6.6 3.5.6 6.05 0 7.65-5.05.55-1.65.55-3.6v-.1-.4q-.1-1.75-.1-1.9v-.2h.75q5.05 0 7.5-3.75 1.2-1.85 1.45-3.5.05-.45.05-.85v-.3-.2q0-2.65-1.45-6.15 2.9-1.15 4.7-3.75l-.2.25q2.45-3.35 2.45-6.1 0-3.55-1.15-5.05-.6-.8-1.55-1.35-.45-.3-.95-.5-.55-.25-1.15-.45.7-.2 1.65-.6 5.3-2.15 4.3-8.25z" id="HaiSho003__Symbol_3n_0_Layer0_0_FILL"/><path fill="#252525" d="M59 58.2l-.3 1.1q0-.2.1-.8-.7 1.1-1.75 2.2-1.75 1.8-4.75 2.25-3.05.35-4.8.35 2.05 1.35 3.85 3.4.15.2.35.4 2.35 2.85 2.35 5.35v.95q.05.5.05 1.1v.5q0 .1-.25 1.7.65-1.95.65-4.7 0-2.15-.15-2.7-.35-1.05-2-3.1-.3-.4-.65-.7-.35-.45-.65-.7h1.2q5.75 0 6.75-6.6M6.8 82.7q0 .4.05.85.25 1.65 1.45 3.5 2.45 3.75 7.5 3.75h.75v.2q0 .15-.1 1.9v.5q0 1.95.55 3.6 1.6 5.05 7.65 5.05 1.9 0 3.5-.6 2-.85 3.5-2.65 1.2-1.5 1.65-2.7v-.05q0-.1.6.4v.05h.05q5.85 3.25 10.55.25.4-.3.75-.6 1.05-1.05 1.3-2.1.9-1.75 1.15-5.05l.05-2.4q-.05-2.4-1.1-4.4v1.1q0 3.2-.95 5.6-1.9 4.8-6.95 4.8-4.95 0-5.55-3.6-.4 1-.85 2.1-1.9 3.45-5.15 4.2-.85.2-1.85.2-2.55 0-4.2-1.6-1.75-1.75-1.75-4.75 0-1.1.45-1.9.25-.4.35-1.1l.1-.6q-2 .55-3.75.55-5.75 0-7.85-3-1.05-1.5-1.05-3.75 0-1.65.3-2.55-.1-.2-.1-.35-1 2.7-1.05 4.85v.3m14.55-11.55q0-2.1 1.5-3.55 1.3-1.35 3.1-1.45-.65-.15-1.4-.15-2.7 0-4.6 1.85-1.9 1.95-1.9 4.65t1.9 4.55q1.9 1.9 4.6 1.9.75 0 1.4-.15 1.8-.35 3.2-1.75 1.65-1.6 1.85-3.85-.35.8-1.05 1.5-1.5 1.5-3.55 1.5h-.35q-1.9-.15-3.2-1.5-1.5-1.5-1.5-3.55m17.1-26.95q1.5 1.5 1.5 3.55 0 2.1-1.5 3.55-1.5 1.5-3.5 1.5-2.1 0-3.55-1.5-.55-.55-.9-1.2-.5-.85-.55-1.9-.15.65-.15 1.4 0 1 .25 1.9.45 1.5 1.6 2.7 1.95 1.9 4.65 1.9 2.65 0 4.5-1.9 1.9-1.9 1.9-4.6 0-2.7-1.9-4.6-1.6-1.7-3.85-1.9.8.35 1.5 1.1m-36.5-.3q-1.8 2.6-1.8 5.45v.9q-1 6.1 4.3 8.25.95.4 1.65.6-.6.2-1.15.45-.5.2-.95.5-.95.55-1.55 1.35-1.15 1.5-1.15 5.05 0 2.75 2.45 6.1-1.1-2.45-1.1-3.95 0-2.65 1.15-4.8.4-.85 1-1.65 1.9-2.45 4.9-3.8 0-.15.15-.15-3.15-.9-3.95-1.55-.75-.65-2.7-3-1.95-2.35-1.85-5.5.1-2.45.15-3.45.2-.4.45-.8M13.1 8.5l-.3.5q-.85 1.3-1.2 2.9-1.65 4.4 1.05 7.85-5.2-.2-8.85 2.85-2.25 2.4-2.25 6.95 0 2.6 1.25 5.4.75 1.65 1.85 2.75-.15-.25-.25-.5-.25-.7-.4-1.6v-.85q-.6-2.15-.6-4.7 0-4.75 4.05-7.1 3.4-2.05 9.2-.65-4.25-4.15-3.25-11.25.45-2.5 1.8-4.45l.2-.3q-1.35.85-2.3 2.2m15.45 15.2q-2.6-.7-4.9.6-2.25 1.4-2.95 4-.7 2.6.6 4.9 1.1 2 3.2 2.8-.65-.55-1.15-1.4-1.05-1.8-.5-3.8.55-2 2.3-3.1Q27 26.65 29 27.2t3.05 2.35q1 1.65.6 3.4.35-.55.55-1.3.7-2.6-.65-4.95-1.35-2.3-4-3m27.15 7.2q0-.05.3-1.05.1.1 0-1.05-.1.45-.15.8-.55.8-1 1.5-.6.8-1 1.25-.45.45-1.9 1.7-1.15.95-2.6 1.7h3.75q4.3 1.5 6 4.15 1.2 1.9 1.2 4.8 0 .75-.3 1.95-.2.4-.45.75l-.1.1q-.1.15-.25.35 1.05-1.1 1.25-1.7.3-.85.3-3.85.05-1.45-.25-2.85v-.05q-1.05-2.05-2.2-3.1-.15-.15-.3-.25-1.3-1.1-3.15-1.2l-1.9-.15q.25-.25.5-.55 1-1.2 1.6-2.2.25-.4.45-.8.1-.15.2-.25m8.1-27.25q-.5-1.05-1.45-1.9Q60.45 0 57.7 0 54.95 0 53 1.75q-.4.4-.75.8-.05.15-.1.35-.15.4-.25.85-.25.8-.3 1.6-.05.3-.05.65-.25 0-.45.1-2.7.6-4.4 2.05-1.5 1.25-2.55 3.3-.1.2-.15.4-1 2.05-1 4 0 .6.05 1.15.1 1.95.65 2.8.55.8 2.3 1.55 3.65-4.6 8-8.95 4.75-4.75 9.85-8.65-.05-.05-.05-.1M222.35 71q-1.4-2.3-4-3-2.6-.7-4.9.65-2.35 1.35-3.05 3.95-.7 2.6.65 4.95 1.15 2 3.25 2.8-.65-.6-1.2-1.4-1.05-1.85-.5-3.85.5-2.05 2.35-3.05 1.85-1.05 3.85-.55 2 .55 3.05 2.4.95 1.65.6 3.35.25-.55.45-1.3.7-2.6-.55-4.95m-25.8 12.3v-1.1q-1.05 2-1.1 4.4l.05 2.4q.25 3.3 1.15 5.05.25 1.05 1.3 2.1.35.3.75.6 4.7 3 10.55-.25h.05v-.05q.6-.5.6-.4v.05q.45 1.2 1.65 2.7 1.5 1.8 3.5 2.65 1.6.6 3.5.6 6.05 0 7.65-5.05.55-1.65.55-3.6v-.1-.4q-.1-1.75-.1-1.9v-.2h.75q5.05 0 7.5-3.75 1.2-1.85 1.45-3.5.05-.45.05-.85v-.3q-.05-2.15-1.05-4.85 0 .15-.1.35.3.9.3 2.55 0 2.25-1.05 3.75-2.1 3-7.85 3-1.75 0-3.75-.55l.1.6q.1.7.35 1.1.45.8.45 1.9 0 3-1.75 4.75-1.65 1.6-4.2 1.6-1 0-1.85-.2-3.25-.75-5.15-4.2-.45-1.1-.85-2.1-.6 3.6-5.55 3.6-5.05 0-6.95-4.8-.95-2.4-.95-5.6m-12.05-24l-.3-1.1q1 6.6 6.75 6.6h1.2q-.3.25-.65.7-.35.3-.65.7-1.65 2.05-2 3.1-.15.55-.15 2.7 0 2.75.65 4.7-.25-1.6-.25-1.7v-.5q0-.6.05-1.1v-.95q0-2.5 2.35-5.35.2-.2.35-.4 1.8-2.05 3.85-3.4-1.75 0-4.8-.35-3-.45-4.75-2.25-1.05-1.1-1.75-2.2.1.6.1.8m17.3-12.85q-2.2.5-3.5 2.35.7-.5 1.65-.75 2.05-.55 3.8.45 1.8 1.05 2.35 3.1t-.45 3.85q-1.05 1.8-3.1 2.3-1.8.55-3.35-.3.4.45 1.05.85 2.35 1.35 4.95.7 2.6-.75 3.95-3.1 1.35-2.3.65-4.85-.7-2.6-3.05-3.95-2.35-1.35-4.95-.65M187.2 28.8q-.1 1.15 0 1.05.3 1 .3 1.05.1.1.2.25.2.4.45.8.6 1 1.6 2.2.25.3.5.55l-1.9.15q-1.85.1-3.15 1.2-.15.1-.3.25-1.15 1.05-2.2 3.1v.05q-.3 1.4-.25 2.85 0 3 .3 3.85.2.6 1.25 1.65-.15-.2-.25-.3l-.1-.1q-.25-.35-.45-.75-.3-1.2-.3-1.95 0-2.9 1.2-4.8 1.7-2.65 6-4.15h3.75q-1.45-.75-2.6-1.7-1.45-1.25-1.9-1.7-.4-.45-1-1.25-.45-.7-1-1.5-.05-.35-.15-.8m11.85-17.35Q198 9.4 196.5 8.15q-1.7-1.45-4.4-2.05-.2-.1-.45-.1 0-.35-.05-.65-.05-.8-.3-1.6-.1-.45-.25-.85-.05-.2-.1-.35-.35-.4-.75-.8Q188.25 0 185.5 0t-4.65 1.75q-.95.85-1.45 1.9 0 .05-.05.1 5.1 3.9 9.85 8.65 4.35 4.35 8 8.95 1.75-.75 2.3-1.55.55-.85.65-2.8.05-.55.05-1.15 0-1.95-1-4-.05-.2-.15-.4m16.4 17.2q.55-2 2.35-3.05 1.65-1 3.4-.6-.55-.35-1.3-.55-2.6-.7-4.95.65-2.3 1.35-3 4-.7 2.6.6 4.9 1.4 2.25 4 2.95 2.6.7 4.9-.6 2-1.1 2.8-3.2-.55.65-1.4 1.15-1.8 1.05-3.8.5-2-.55-3.1-2.3-1.05-1.85-.5-3.85M231.6 11.9q-.35-1.6-1.2-2.9l-.3-.5q-.95-1.35-2.3-2.2l.2.3q1.35 1.95 1.8 4.45 1 7.1-3.25 11.25 5.8-1.4 9.2.65 4.05 2.35 4.05 7.1 0 2.55-.6 4.7v.85q-.15.9-.4 1.6-.1.25-.25.5 1.1-1.1 1.85-2.75 1.25-2.8 1.25-5.4 0-4.55-2.25-6.95-3.65-3.05-8.85-2.85 2.7-3.45 1.05-7.85m11.45 38.35v-.9q0-2.85-1.8-5.45.25.4.45.8.05 1 .15 3.45.1 3.15-1.85 5.5-1.95 2.35-2.7 3-.8.65-3.95 1.55.15 0 .15.15 3 1.35 4.9 3.8.6.8 1 1.65 1.15 2.15 1.15 4.8 0 1.5-1.1 3.95 2.45-3.35 2.45-6.1 0-3.55-1.15-5.05-.6-.8-1.55-1.35-.45-.3-.95-.5-.55-.25-1.15-.45.7-.2 1.65-.6 5.3-2.15 4.3-8.25z" id="HaiSho003__Symbol_3d_0_Layer0_0_FILL"/></defs><use xmlns:xlink="http://www.w3.org/1999/xlink" xlink:href="#HaiSho003__Symbol_3n_0_Layer0_0_FILL" transform="translate(70.9 68.55)" id="HaiSho003__col1n"/><use xmlns:xlink="http://www.w3.org/1999/xlink" xlink:href="#HaiSho003__Symbol_3d_0_Layer0_0_FILL" transform="translate(70.9 73.65)" id="HaiSho003__col1d"/></g></g></svg>