<?xml version="1.0" standalone="no"?>
<svg width="800" height="800" xmlns="http://www.w3.org/2000/svg" id="stage-svg" xmlns:xlink="http://www.w3.org/1999/xlink" preserveAspectRatio="none" viewBox="0 0 385 385"><g transform=""><g class="active-stage-item" transform=""><defs><path fill="#434343" d="M152.9 194.95l.2-.1q-.15.05-.25.1.5.15 1.05.25-.5-.1-1-.25m46.9-22.7l-.15.15q.053-.056.1-.15 25.4-33.25 11-71.6-5-34.1-23.3-59.85-13.7-18.1-29.8-27.6-10.65-5-19.8-8.1-30.1-10.15-44.5 0-5.85 4.1-9.1 11.5v.1q-.15.25-.25.55-.65-.35-1.3-.65-1.65-.85-3.25-1.5h-.05q-1.8-.75-3.55-1.35-.75-.25-1.5-.45-16.7-5-30.05 4.7-9.2 6.65-16.75 20.25-3.1 5.5-5.9 12.2h-.05q-2.95 6.95-5.55 14.1Q14 70 12.2 75.55q-1.75 5.15-3.25 10.4-2 6.75-3.7 13.6Q1.1 111 .25 121.3q-1.9 22.45 11.9 39.25 1.75 2.35 3.85 4.4v.05q1.35 2.75 2.8 5.3l.8 1.45q7.05 12 15.3 16.75 10.35 6.05 24.95 5.55-4.7-3.05-9.3-7.3-5.15-4.75-7.05-8.95 1.45.3 2.95.55l1.4.2q.55.1 1.15.15 2.2.3 4.5.5l-.7-.5q-.75-.5-1.4-1-1.5-1.1-2.9-2.2-.35-.25-.65-.5-1.15-.95-2.2-1.9-1.45-1.3-2.75-2.6-1.9-1.95-3.45-3.85-8.2-10.4-5.6-21.15 9.1 5.5 14 3.25.4-.15.75-.4-.4-.3-.75-.6-5.05-4.25-5.9-10.45-1.65-11.65 11.55-30.35 20.5-22 15.25-40.55-3.1-9.05-1.65-13.6 0-.05.05-.05v.05q.001-.05.05-.05 3.35-6.1 11.9-4.1 21.75 31.2 58.4 39.5L130.65 77q57.8 27.65 55 68.95-2 16.6-11.15 27.15-2.15 2.45-4.65 4.6-4.7 3.95-10.7 6.8 3.3 1 6.65 1.25-5.25 4.65-12.3 8.9 17.55 1.55 31.05-7.2 5.4-3.15 12.75-12.1l.05-.05q.35-.45.7-.8l.65-.8q.05-.05.05-.1l.4-.5q.3-.45.65-.85M58.25 42.75l.05-.05.05.05h-.1z" id="HaiMed020__Symbol_76_0_Layer0_0_FILL"/><path fill="#252525" d="M34.5 21.8q-5.15-4.75-7.05-8.95l-.5-.1q-8.3-1.65-14.8-4.6Q6.5 5.6 2.2 2 1.05 1 0 0q2.15 4.4 4.4 8.15 1.45 2.45 3 4.6Q8.2 13.9 9 15q.3.45.6.85Q21.55 30.4 43.8 29.1q-4.7-3.05-9.3-7.3m146.8-11.45l1.8-2.2h-.3q-2.95 2.55-5.8 4.6-13.2 9.35-27.1 7.9-.1.05-.15.15-5.4 4.8-12.7 9.1l-.2.1q.5.15 1 .25 31 2.25 43.45-19.9z" id="HaiMed020__Symbol_45_0_Layer0_0_FILL"/><path fill="#666666" d="M36.95 60.35q-.25-2.7.75-5.35-2.6 4.7-2.75 5.15Q33 64.5 29.75 70.2v.05q-.5.7-.95 1.5-.35.6-.65 1.15-.1.15-.15.3l-2.55 15.2L36.7 77q-3.4 10.25-8.1 18.5l.5-.45q21.2-16.2 24.15-35-3.95 4.1-7.95 5.1-.5-2.9 3.9-16.1-6.7 7.4-12.25 11.3m-17.1-22.2q-1.2 2.25-2.45 4.7-3.45 7-6.7 15.4-.7 1.8-1.4 3.7-.25.65-.5 1.35l-.1.3v15.15l9.6-8.1L16.85 84q5.05-4.25 8.45-8 .75-1.4 1.55-2.8.5-.95 1.1-1.95.4-.8.95-1.55 3.55-8.4 14.6-25.35-2.05 3.7-3.6 6.55 2.8-4.15 4.4-7.9-7.75 8.2-13.25 10.6-2.85 1.3-2.45 0-.3-1.75-.3-8.6-.05.1-.05.15.1-1.8.35-4.5l-8.75 8.1v-10.6M16.5 42.4q1.15-2.3 2.3-4.45.35-.7.7-1.35h.05l.2-.3-9.05 9.1 4.65-21.35q-3.1 5.5-5.9 12.2H9.4q-2.95 6.95-5.55 14.1Q1.8 55.8 0 61.35l3.45-1.95L.7 71.5l6.6-7q.25-.8.55-1.6.25-.7.5-1.3.7-1.95 1.4-3.7 3.3-8.45 6.75-15.5M55.25 8.95q.9-1.1 1.7-1.7-12.45.45-24.1 12.2-.95.95-1.8 2-.6.65-1.75 2.1-.75.95-1.35 1.75-.35.45-.7.95l-.05.05q-.05.05-.05.1l-.05.05q-.3.4-.55.8 4.7-4.25 9.7-5.85-.15 4.05-.3 5.5-.15 1.35.25 6.8.15-.25.35-.45.6-.9 1.25-1.75-.05.1-.05.25 1.6-2 4.65-5.5 7.3-8.4 10.6-10.85.15-.15.3-.25-.1.45-.15.8-.45.4-.95.95-4.05 3.9-5 4.95-1 1-.95 1.2 0 .2-2.3 2.6-2.2 2.2-6.55 8.45 2.75-1.85 5.65-3.7 2.4-1.55 2.95-1.9l.05-.05q0-.05.05-.1v.05q0 .05.05.1h-.1q-2.75 8.35-2.95 11.45l1.8-1.1q4.3-2.7 5.55-3.9 1.05-1.05 2-1.8.25-.4.5-.75l1.95 6.1v.05q.001-.05.05-.05 3.35-6.1 11.9-4.1v-.05q-.15 0-.3-.05.15 0 .35.05-.2-.6-3.25-4.25-.7-.85-1.5-1.85-1-1.25-2.25-2.7-6.65-7.95-6.45-11.3.2-3.35 1.8-5.3m7.35-4.4q3.65-1.25 7.65-1.5-16.4-6.4-30.6.55-1.15.45-1.9.85-2.2 1.2-5.4 3.3Q29.1 9.8 18.95 22.1q7-6.55 11.7-7.4.15-.05 1.05-.55.1-.1.25-.15v.05q-5 8.75-5.3 10.6-.1.35-.1.65.25-.4.5-.75.6-.8 1.35-1.75.3-.4.6-.75l-.1.4q.85-1.05 1.4-1.65.9-1.1 1.85-2.05Q44.6 6.2 58.05 6.25q.05-.1.1-.15h.2q.05 0 .15.05.2-.1.5-.15l1.2-.5q1.05-.45 1.95-.8.25-.1.45-.15m-25.75 5.2q-.2.1-.35.2.15-.15.3-.25 0 .05.05.05m95.05 34q-2.4-4.7-6.2-7.25l14.2 2.45q-5.25-5.6-13.65-9.6-5.95-2.85-18.9-6.9v2.35q.1.35.2.75.1.9-.35 4.75-.45 3.75-5.45 5.85-5.05 2.1-9.45 1.3l-4-.8q11.05 5.05 22.65 7.65 4.95 1.05 8.15 1.55l2.55.4-.6-.8h.25L119.4 42l12.5 1.75m22.15-31.85q-6.1-5.75-10.15-7.65-4.1-1.9-6.45-2.9-2.4-1.05-1.75.15.6 1.15 2.5 3.85 1.85 2.7 1.9 6.1-.05 5.8-8.7 8.5-4.65 1.45-10.5 1.8l1 .5q13.7 5.7 27.45 14.2.3.15.6.35.75.5 1.55 1.05.05 0 .15.05l4 2.6 1.75 1.2-4.1-9.55q2.15.1 7.65-.3l.3.05h2.95q-6.25-8.2-8.35-10.1h8.25q-3.95-4.15-10.05-9.9m14.35 52.8h-.05q-4.65-2.55-10.05-4.55h-.05q3.9 6.3 6.25 10-6.5-2.15-10.75-3.8 4 5.75 5.5 8.95-6.4-1.1-13.9-2.9 10.35 5.95 16.3 13.45l4.65 6.25q2.65 3.4 3.2 4.25.5.8.75 1.25 2.1 3.35 5.25 8.45.95-7.4-1.35-14.1l10.6 4.9-3.8-4.8Q174.65 85.7 164.6 82q-1.7-.65-3.45-1.2-.2-.1-.3-.25-.1-.2-.05-.35.1 0 .25.05 2.15.15 3.9.8 10.3 3.8 16.75 10.35.05 0 .05.05l3.65 4.6-3.15-10.5 8.45 8.4-4.25-14.3q-.35-.45-.65-.85h-.05q-.15-.2-.3-.35l-2-.1q1.05-.05 2 .05-3.35-4-7.5-7.4-3.65-2.95-7.9-5.35-.85-.5-1.65-.95m15.35 13.55h-.4q.6-.05 1.15 0h-.75M170.1 64.5q.2.15.45.3 4.35 2.45 8.05 5.4 4.45 3.65 7.95 7.95.15.2.35.4l.5.6q4.2 1.3 8 4.15-10.4-25.8-36.05-33.4 6.7 5.9 8.7 13.45.4.25.8.45.6.35 1.25.7z" id="HaiMed020__Symbol_23_0_Layer0_0_FILL"/><path fill="#121212" d="M16.65 144.6q.05-.1.05-.25 0-.2-.15-.3-14-11.75-13.65-29.2-2.75 13.75 8.4 25.6.3.35.7.75l1.45 1.45q.9.6 2.45 1.65.2.05.45.15.15.05.3.15m20.9-95.85q.95-1.75 2.2-4.1 1.55-2.85 3.6-6.55-11.05 16.95-14.6 25.35-.55.75-.95 1.55-.6 1-1.1 1.95-.8 1.4-1.55 2.8Q10.6 96.2 13.7 106.1q.75 1.15 2.35 3.05.15-.15.15-.35 0-.2-.1-.35-7.1-8.25 11.75-41.5.05-.15.15-.3.3-.55.65-1.15.45-.8.95-1.5v-.05q3.25-5.7 5.2-10.05.15-.45 2.75-5.15m14.5-38.1q.5-.55.95-.95.05-.35.15-.8-.15.1-.3.25-3.3 2.45-10.6 10.85-3.05 3.5-4.65 5.5 0-.15.05-.25Q37 26.1 36.4 27q-.2.2-.35.45-.5.7-.2.6l-.5.7v.05q-3.7 5.25-5.5 9.3-1.1 2.4-1.65 4.3.25-.35.35-.45 3.75-7.05 7.6-12.6l.5-.7q.1-.2.25-.35.15-.25.35-.45 4.35-6.25 6.55-8.45 2.3-2.4 2.3-2.6-.05-.2.95-1.2.95-1.05 5-4.95M58.3 0h-.4Q44.45-.05 32 12.5q-.95.95-1.85 2.05-.55.6-1.4 1.65l-.4.5q-.75.95-1.35 1.75-.25.35-.5.75-.1.05-.15.15-.15.15-.25.35-3.35 4.55-6.5 10.35l-.2.3h-.05q-.35.65-.7 1.35-1.15 2.15-2.3 4.45-3.45 7.05-6.75 15.5-.7 1.75-1.4 3.7-.25.6-.5 1.3-.3.8-.55 1.6-2.4 6.6-4.7 14.05l-1.7 6.55q0 .1-.05.25 0 .75-.7 3.65.15 0 .25-.05.15-.15.25-.3 3.85-13.75 8.05-25.05l.1-.3q.25-.7.5-1.35.7-1.9 1.4-3.7 3.25-8.4 6.7-15.4 1.25-2.45 2.45-4.7l.1-.2q.25-.45.45-.85 2.75-5.05 5.7-9.2.2-.35.45-.65.25-.4.55-.8l.05-.05q0-.05.05-.1l.05-.05q.35-.5.7-.95.6-.8 1.35-1.75 1.15-1.45 1.75-2.1.85-1.05 1.8-2Q44.35 1.45 56.8 1h.5l.05-.05q.35-.65 1.1-.9-.1-.05-.15-.05m99.15 35.7l-1.85-1.35-4-2.6q-.1-.05-.15-.05-.8-.55-1.55-1.05-.35-.25-.7-.45-13.75-8.5-27.45-14.2l-.9-.4q-.5-.25-1-.4Q98.8 6.55 77.7 4.6q-.2 0-1.3.1-1.15.1-.7.3.45.2 1.1.4.6.2.8.2 20.9 1.95 41.85 10.55h.05q14.9 6 29.85 15.35v-.05q.75.55 1.65 1.15.05 0 .15.05 1.9 1.25 3.9 2.55l-.05-.05 2.3.55h.15m-35.7 4.35h.25l-3.05-.45q-3.2-.5-8.15-1.55-11.6-2.6-22.65-7.65-.3-.15-.65-.3-1-.45-1.95-.95-9.95-4.85-13.95-8-4.05-3.15-6.65-4-2.65-.85-2.15-.45.5.35 1.55.9 1.05.5 1.2.65 9.55 6.95 19.55 11.8 12.25 6 25.2 8.9 7.9.9 9.55 1.15 1.65.25 1.9-.05m62.2 106.85q8.4-9.1 8.4-18.95-.85 3.1-1.6 5.1Q188.6 142 179 150.3q-.2.1-.2.3 0 .1.05.2.75-.65 2.5-1.95 1.65-1.45 2.6-1.95m-2.4-61.75Q175.1 78.6 164.8 74.8q-1.75-.65-3.9-.8-.15-.05-.25-.05-.05.15.05.35.1.15.3.25 1.75.55 3.45 1.2 10.05 3.7 16.35 10.05l4.5 5.65q3.95 6.25 5.25 14.45.45 1.2.95 3.05.35 1.45.55 2.6-.45-12.05-5.9-20.65l-.05-.05-4.5-5.65q0-.05-.05-.05m5.7-12.25l-.5-.6q-.2-.2-.35-.4-3.5-4.3-7.95-7.95-3.7-2.95-8.05-5.4-.25-.15-.45-.3-.65-.35-1.25-.7-.4-.2-.8-.45-8.85-4.65-13.85-5.55-5.3-1-6.75-1.1-.3-.05-.5-.05 5.95 1.5 11.3 3.5h.05q5.4 2 10.05 4.55h.05q.8.45 1.65.95 4.25 2.4 7.9 5.35 4.15 3.4 7.5 7.4-.95-.1-2-.05l2 .1q.15.15.3.35h.05q.35.45.75.95 10.5 13.6 11.15 33.9l.25 1.75q.65 2.95.75 3.55.7-24.25-11.3-39.8z" id="HaiMed020__Symbol_12_0_Layer0_0_FILL"/></defs><use xmlns:xlink="http://www.w3.org/1999/xlink" xlink:href="#HaiMed020__Symbol_76_0_Layer0_0_FILL" transform="translate(85.35 43.3)" id="HaiMed020__col1n"/><use xmlns:xlink="http://www.w3.org/1999/xlink" xlink:href="#HaiMed020__Symbol_45_0_Layer0_0_FILL" transform="translate(101.4 208.25)" id="HaiMed020__col1d"/><use xmlns:xlink="http://www.w3.org/1999/xlink" xlink:href="#HaiMed020__Symbol_23_0_Layer0_0_FILL" transform="translate(97.6 57.55)" id="HaiMed020__col1l"/><use xmlns:xlink="http://www.w3.org/1999/xlink" xlink:href="#HaiMed020__Symbol_12_0_Layer0_0_FILL" transform="translate(97.75 63.8)" id="HaiMed020__col1s"/></g></g></svg>