<?xml version="1.0" standalone="no"?>
<svg width="800" height="800" xmlns="http://www.w3.org/2000/svg" id="stage-svg" xmlns:xlink="http://www.w3.org/1999/xlink" preserveAspectRatio="none" viewBox="0 0 385 385"><g transform=""><g class="active-stage-item" transform=""><defs><path fill="#434343" d="M225.4 45.8l-.4-.7-1.65-3q-12.55-21.95-33-33.8-1.35-.85-2.7-1.55-2.05-1.1-4.3-2.05-2-.6-4-1.15-24.6-7.05-50.35 0-7.2 2.15-14.15 5.65-.8.35-1.6.8.8-.55 1.65-1.1-1.2.55-2.4 1.2-1.8.95-3.55 2-4.35 2.55-8.55 5.7-.65.65-1.25 1.35-.4.4-.75.85-1.5 1.85-3.6 5.1-.1.1-.15.25l-.1.1h.15l-.1.2-.1.1q-2.25.05-4.3.15-33.85 5.15-49.35 54.85-5.55 20.3-21.55 22.1-2.65-.1-5.75-.35 4.65 2.05 15.5 3 1.35 0 2.6-.1l-5.3 6.7q-.25.2-.45.45v.05Q13.3 126 9.05 135.8.3 152.55 0 172.55q9.9-25.55 19-31.1-4.25 5.6-10.65 22.65-6.4 16.95-3.6 34.9 2.75 17.95 14.75 26.6-7.75-13.75-3.55-25.4 10.85 33.2 35.35 40.1 5.05 1.4 10.7 1.7 3.95.35 7.6.15-.3-.05-.6-.05-12.65-3.25-14.55-10.4 8.6 3.5 17.25-1.65-9.45.9-15.5-3.8l-.15-.15q.4-1.1.85-2.2l.1-.2v-.05q.3-1 .45-1.45l.8-1.9q.5-1.15 1.05-2.25.05-.15.1-.25.05-.15.1-.25l.3-.7.65-1.25q.75-1.55 1.5-3l1.1-2q1.3-2.3 2.7-4.5.15-.25.3-.45 1.4-2.2 4.7-7.1-2.35-1.9-4.6-4-1.65-1.5-3.25-3.1-25.1-25.1-27.75-59.6.05 0 .05-.05.1-.05.2.25 13-10.35 17.8-19.7.35-.65.65-1.3L63.2 97.3q4.8-3.9 13.3-11.8-7.25 12.8-10.5 15.75-3.3 2.95-5.5 3.55 2.1.25 4.4-.15 2.3-.45 9.5-3.9Q81.6 97.3 96.25 77q-9.95 17.8-15.1 22.4-5.2 4.6-6.65 5.15-1.5.55-2.6 1.4 7.55.15 12.75-2.5 8.9-4.55 11.6-8.3v.05q-1.45 3.4-4.05 6.7-1.95 2.4-10.85 5.9 7.2.3 13.9-1.2 6.4-1.3 11.5-3.25 8.45-3.35 26.3-20.85-8.7 15.1-24.85 22.2 39.15 4.15 58.65-27.4-11.15 20.8-24.25 27.2h.85q4.3-1.2 9.05-3 16.45-5.25 29.5-33.3-6.25 30-22.1 35.7 6.85-1.65 10.15-3.65 9.3-5.65 14.4-11.3-.3 3.35 1.75 8.7.5 1.25 1.1 2.65 3.15 6.9 3.95 9.3-1.25-6.6 6.65-18.15-6.25 29.45 1.7 51.8 7.9 22.4 13.4 23.8-8.15-18.45-5.5-35.75 9.6 28.75 9.2 34.35.05.05.05.75-5.2 10.35-13.25 19.6-2.4 2.75-5.1 5.45-1.15 1.15-2.3 2.25-.45.45-.9.85-2.25 2.05-4.5 3.95 3.25 4.95 4.65 7.15.15.2.3.45.3.45.6.95 1.1 1.75 2.1 3.55l1.1 2q.75 1.45 1.5 3l.65 1.25.3.7q.05.1.1.25.05.1.15.25.5 1.1 1 2.25l.8 1.9q.15.45.45 1.45v.05l.1.2q.9 2.2 1.75 4.4.15.5.35 1l.1.2.4 1.2 1.3 3.8q.05.2.15.4.5 1.7 1.05 3.4-.1.05-.2.15-2.75 2.7-5.8 4.55-.2.1-.4.25-4.15 2.45-8.85 3.45.05.05.05.1 6 3.15 13.7.5 17.95-6.8 23.45-27.05 1.95 7.25-2.35 15.45 6.95-5.9 10.25-11.45 11.4-17.85 5.65-40.85.4 1.45.2.1-.2-.35-.35-.6.1.05.3.2 1.7 1.15 5.6 8.85 1.95 4 2.1 15.95 2.4-23.25.55-33-2.25-11.95-8.55-24.4-4.45-8.6-7.2-23.15-1.6-8.1-3.8-26.35V88.35q.75-24.5-8.55-42.55z" id="HaiLon013__Symbol_72_0_Layer0_0_FILL"/><path fill="#252525" d="M7.15 133.2q-.05-.1-.05-.15-.1.35-.2.75-.05.1-.05.25-1.15 5.2-1.15 10.25 0 11.35 3.6 21.7 1 2.8 2.3 5.1 1.45 3.8 2.95 6.35 1.6 3.6 7.4 6.55-5.65.3-8.05-.75-2.4-1.05-5.35-3.55.2 15.95 12 33.3l-.1.1q.25.2.45.45.95 1 1.85 1.9 3.8 3.8 6.55 5.4l.6.3q.1-.25.2-.45-.15.35-.25.7.15.1.3.25.4-1.1.85-2.2l.1-.2v-.05q.3-1 .45-1.45l.8-1.9q.5-1.15 1.05-2.25.05-.15.1-.25.05-.15.1-.25l.3-.7.65-1.25q.75-1.55 1.5-3l1.1-2q1.3-2.3 2.7-4.5.15-.25.3-.45 1.4-2.2 4.7-7.1-2.35-1.9-4.6-4-1.65-1.5-3.25-3.1-25.1-25.1-27.75-59.6-.3.45-.55.9-1.3 2.25-1.55 4.9m30.2-40.65q-3.3 2.6-7.2 4.7-.45.2-.9.45-2.7 1.4-6 3.1-3.45 1.8-9.95 2.95 13-8.1 16.35-16l-10.3 7.6.55-.15q-.45.2-.85.4l-.15.15q-.05-.05-2.75 1.7-2.75 1.75-5.05 2.4-.2.05-.35.1-2.05.5-3.15.55-1.25.05-1.6.1l-6 7.65q1.1-.6 3.6-1.35 4.15-1.2 5.4-1.85l-.2.2-3.3 3.4q2.85-.3 5.2-.5 7.75-.6 18.75-5.9l.05.25 1.3-.35 6.55-9.6M191 164.95q-.05-2.25-.15-3-5.2 10.35-13.25 19.6-2.4 2.75-5.1 5.45-1.15 1.15-2.3 2.25-.45.45-.9.85-2.25 2.05-4.5 3.95 3.25 4.95 4.65 7.15.15.2.3.45.3.45.6.95 1.1 1.75 2.1 3.55l1.1 2q.75 1.45 1.5 3l.65 1.25.3.7q.05.1.1.25.05.1.15.25.5 1.1 1 2.25l.8 1.9q.15.45.45 1.45v.05l.1.2q.9 2.2 1.75 4.4.15.5.35 1l.1.2.4 1.2 1.3 3.8q.05.2.15.4.5 1.7 1.05 3.4.2-.25.45-.5 1.35-1.4 2.55-2.9.1-.15.25-.25 2.6-3.45 4.25-7 2.2-4.9 2.6-10.05.4-5.15.65-9.15l.05-1.4q0-1.85.05-3.8v-3.4-6.15q.05-8 .15-15.45-3.35 9.85-7.95 15.45l-.2.2q-3.1 3.7-6.8 5.5 1.95-2.9 3.6-5.7.6-1.1 1.15-2.15 2.85-5.35 4.4-10.55 2.15-7.3 2.1-11.6m-14-127.3q-10.05-5.15-12.6-3.45 1.6-1.65 6.15-1.6 9.2-1.2 26.6 20.1-19.35-31.75-35.75-25.55 5.45-6.65 14.75-5.2l8.25 3.25q-8.8-6.1-15.35-6.85-6.6-.8-13.65 2.6-1.1-6.3 14.35-8.25-11.35-.35-11.8.45-.5.05-1.3.15-3.3.5-6.2 2.7-2.9 2.15-3.6 2.65-1.45 1-1.8 2.85-1.1-.15-2.15-.3-.25-1.15-.25-1.75.25-1.25.8-3.4t4.9-4.85q3.55-2.25 9.6-3.7-9.9 2.1-18.3 4.8-.3.2-2.4 1.3-2.2 1.05-2.85 1.85-1.9 2.15-3.5 5h-.25V18.2q.05-1.95 1.85-4.65 1.85-2.75 9.65-9.2l-9 5.1q-4.9 2.3-7 5.5-1.8 3.65-3 5.5h-.5q-.25-1.65-.25-2.25l.25-6q0-.85 1.25-2.5 1.2-1.65 2-2v-.25q14.7-11.2 3.8-4.15-10.95 7-12.3 9.9-1.1 2.15-2.1 3.7-1.85 3.05-3 3-1.15-.1-1.75-3.5-.6-3.45 2.15-6.9Q115.4 6 123.15 0q-17.6 9.6-20.5 20.2h-.5q.05-1.25-.25-4.65-.35-3.45 6.4-10.65 6.7-7.25-1.35-.25Q98.9 11.6 96.7 14.9q-2.2 3.25-2.8 4.8h-.25v-3q1-6.15 10.2-15.1Q87.4 8.7 82.4 19.7q-2.1-2.85-1.8-5.65 1.55-4.85 6.75-8.5.8-.55 1.65-1.1-1.2.55-2.4 1.2-1.8.95-3.55 2-4.35 2.55-8.55 5.7-.65.65-1.25 1.35-.4.4-.75.85-1.5 1.85-3.6 5.1-.1.1-.15.25l-.1.1h.25q5.2-.1 11.2 0 3.55 0 7.35.15 6.75.15 14.45.55.65 0 14.1-.3 4.85-.05 8.9 0 2.8 0 5.2.05 18.75 1.4 28.3 12.6 3.65 4.3 6 10.15 1.05 2.55 1.8 5.45 1.2 4.65 1.7 10.15.05.65.15 1.35-.55 4.65-1.55 8.3-2.25 8.25-7.6 14.4-.15.15-.3.35-.3 3.35 1.75 8.7.9-3.95 4.85-9.65 3.9-5.7 4.1-6 .2-.3.2.05 1.95-2.7 3.7-7.95.45-1.45.65-2.7 1.25 1.95 4.7 13.45 3.3-13.35-5.55-22.75 12.45 7.35 16.45 21.05 4 13.65 4 13.7l.1.2V92q.05-2.7-.9-9.45-.25-1.75-.55-3.4-4.65-24.5-21.7-33.7 7.7-5 27.5 26.05-10.85-28.7-20.9-33.85z" id="HaiLon013__Symbol_42_0_Layer0_0_FILL"/></defs><use xmlns:xlink="http://www.w3.org/1999/xlink" xlink:href="#HaiLon013__Symbol_72_0_Layer0_0_FILL" transform="translate(61.8 30.1)" id="HaiLon013__col1n"/><use xmlns:xlink="http://www.w3.org/1999/xlink" xlink:href="#HaiLon013__Symbol_42_0_Layer0_0_FILL" transform="translate(87.7 34.55)" id="HaiLon013__col1d"/></g></g></svg>