<?xml version="1.0" standalone="no"?>
<svg width="800" height="800" xmlns="http://www.w3.org/2000/svg" id="stage-svg" xmlns:xlink="http://www.w3.org/1999/xlink" preserveAspectRatio="none" viewBox="0 0 385 385"><g transform=""><g class="active-stage-item" transform=""><defs><path fill="#434343" d="M166.35 85.85q1.9 1.2 5.4 3.5-.35-14.8-2.75-29.6.45 1.55 1.05 3.3 4.7 12.9 3.6 26.5v69.25l-.5 1.2-.95 1.65q-3.235 3.935-7 7.7-1.6 1.6-3.2 3.1-2.25 2.05-4.5 3.95 3.25 4.95 4.65 7.15.15.2.3.45 1.4 2.2 2.7 4.5l1.1 2q.75 1.45 1.5 3l.65 1.25.3.7q.05.1.1.25.05.1.15.25.5 1.1 1 2.25.4.9 1.85 4.9-.2-5.55.5-12.5.65-7 3.15-19.6 0 .5-.05 12.65 0 12.1 1.05 18.25 1 6.1 2.15 10.3l5-32.45q.05.1.15.15-1 17.35.3 33.2 6.4 9.25 10.2 19.95v-124.2q1.6-32.3-12.55-56.65-3.45-6.55-7.75-13-17.4-22.45-38.2-30.95-43.8-17.95-71.5 3.15Q29.35 13 11.05 48-1.55 74.55.25 105.05V230.9l1.35-7q4.05-15.85 7.35-39.95-.45.4 1.15-18.8v56.9q3.6-11.65 10.75-19.8l-1.4-38.55q.95 7.45 1.7 9.4l3.45 26.25q.2-.6.45-1.15.5-1.15 1.05-2.25.05-.15.1-.25.05-.15.1-.25l.3-.7.65-1.25q.75-1.55 1.5-3l1.1-2q1.3-2.3 2.7-4.5.15-.25.3-.45 1.4-2.2 4.7-7.1-2.35-1.9-4.6-4-1.65-1.5-3.25-3.1-4.5-4.5-8.3-9.35l-2.2-3.1V92q.4-3.8.8-10.15.35-6.45 4.75-19.85-.55 4.95-1.25 12-1.05 10.25-1.5 16.25l8.35-2.2q3.55-17.9 5.75-21.25v4.5q-.85 8.95-1.35 15.75l11.85-3.6 3.5-26.15v-.35q.004.164.05.35.25 8.55-.2 24.85 0 .45-.15 1.1-.15.65 1.15-2.45 1.3-3.1 5.35-16.05-.75 10.2-1.2 16.55 2.05-.65 5.1-1.75 3.5-1.25 6.7-2.55 1.95-7.8 3-19.45.05-4.7 1.15-14.75.75-6.15 1-8.4.75 3.35 1.5 8.35.2 2.85.5 6.2 0 1.95-.75 12.15-.65 8.65-.7 14.4 2.4-.65 5.05-1.2 1.55-.35 3-.6.9-7.8 2.35-15.15.3 8.65-.3 14.8Q89.95 72 95.3 71.9q.25 0 .9-.2.55-2.75 1.6-7.4 3.25-14.05 3.95-30.4 2.45 32.2 2.45 32.25.1 2.6-.05 5.9 2.05-6.2 3.9-12.9 2.4-8.55 4.5-14.8.05 3.55.1 8.45.35 9.95 1.1 18.1.15-.05.5-.1h5.1q.15.05 6.8.75.1-10.2.15-11.9.3-6.9 1-11.2.15-.95.25-2.05.35.35.15-4.75 1.1 9.65 1.6 19.1.7 6.65 1.7 11.2 1.3.55 5.55 1.5 4.2.95 6.15 1.95v-1.15q-.55-12.3-1.9-24.35-.6-5.55-1.3-9.9 1.9 5 2.55 7.05 1.3 3.95 4.2 18.15 2.35 9.1 3.05 11.35l.3.75 12.8 5.95q-.05-5.05-1.35-12.6Q159.8 63.5 157.7 53q2.25 4 3.65 8.25 1.6 5.05 2.4 9.9.75 4.65 2.6 14.65v.05z" id="HaiLon012__Symbol_71_0_Layer0_0_FILL"/><path fill="#252525" d="M278.75 232.1q-.03.502-.05 1-.168 3.026-.3 6-.4 13.565.65 26.2 1.183 1.707 2.25 3.45l-1.4-48.5-1.15 11.85m-10.1-21.1l-.5 1.2-.95 1.65.5-.65v.05q-3.463 4.263-7.5 8.3-1.595 1.595-3.25 3.1-2.192 2.045-4.5 3.9 3.308 5 4.7 7.2.15.2.3.45.661 1.039 1.3 2.1.714 1.186 1.4 2.4l1.1 2q.75 1.45 1.5 3l.65 1.25.3.7q.05.1.1.25.062.124.1.25.557 1.085 1.05 2.25.385.913 1.85 4.9-.202-5.534.45-12.55.202-1.83.5-4.1.797-5.837 2.45-14.4L268.65 211m-163.6 6.35h.05l-1.4-5.8q-.614 10.65-2.15 28.65-1.539 18.06-6.3 40.7v2.2l1.3-7q5.947-13.612 7.4-39.95-.21.204.05-4.15.264-4.68 1.05-14.65m9.35-2.75l.05 1.3q.965 7.44-.05-1.3m13.45 21.15q.66-1.042 1.75-2.7 1.203-1.83 2.9-4.4-2.31-1.914-4.6-4-1.605-1.505-3.2-3.1-4.521-4.521-8.35-9.35v-.05l-2.15-3.05.2 5.5 5.15 36.9q.263-.538.5-1.1.493-1.165 1-2.25.088-.126.15-.25.05-.15.1-.25l.3-.7.65-1.25q.75-1.55 1.5-3l1.1-2q1.3-2.3 2.7-4.5.15-.25.3-.45m-.7-110.95q-1.488 3.61-2.25 5.75-.712 2.144-1.5 6-2.582.927-5.95 2.05-.074.026-.15.05-.17 2.079-.3 3.8l8.35-2.2q.498-2.508.95-4.75.187-.757.35-1.5.512-2.353 1-4.35 1.944-8.166 3.35-10.5-2.363 2.034-3.85 5.65M150 114.6q-.564 2.13-1.2 4.55-.137.559-.3 1.1-.043.227-.1.45-1.2 4.608-3.35 8.15.027.103 0 .2.024.05 0 .1-.025 2.5-.1 5.2 0 .447-.15 1.1-.16.66 1.15-2.45.583-1.384 1.7-4.7.25-.742.5-1.6 1.038-3.032 2.4-7.35.02-.064.05-.15.243-.76.5-1.6.009-.456.25-1.1.116-.303.15-1.85.048-1.667 0-4.8-.704 2.117-1.5 4.75m-4.85-5.1q-.038-.741-.1-1.05-1.08 1.727-2.55 6-.13.5-.3 1-.601 1.894-1.1 3.55-.783 2.859-1.2 5.05-.667 3.519-1.45 7.35-3.56.984-8.15 2.65-.073.026-.15.05-.221 2.717-.4 5.15l11.85-3.6 3.5-26.15v-.35q.005.169.05.35m106.55-9q.439 2.446.75 4.25 2.41 4.199 3.85 8.65.59 1.764 1.05 3.45.69 2.568 1.15 5.05.136.713.25 1.4.436 2.695 1.2 7.05.158.781.3 1.6.49 2.726 1.1 6.05 1.902 1.235 5.4 3.55-.074-2.923-.25-5.85-.011-.024-.05-.05-2.082-1.355-4.25-2.6-.09-.066-.2-.15-.392-5.68-1.45-10.95-.417-2.136-.95-4.2-.109-.42-.25-.85-2.703-10.06-7.65-16.4m-59.55 18.9q-1.295.138-2.6.25-1.85.212-3.75.45-3.274.39-6.65.9.081-.495.15-1.05.4-3.1.4-5.05 0-2.15-.35-4.4-.4-2.55-.5-5.2 0 .15-.15.15-2.343 6.98-4.6 16.4-.083.008-.2 0-3.017.577-6.1 1.25-.044.01-.1 0-.092 2.495-.15 4.55 2.468-.588 5.1-1.15 1.532-.327 3-.6.27-2.333.55-4.45l.2-1.4q.014-.094 0-.2.396-2.527.75-4.65.138-.635.25-1.25.105-.445.5-2.4-.182 2.578-.1 3.65.173 2.31.15 4.6.025.048 0 .1.02.651 0 1.3-.058 2.174-.3 4.3.3-.025.55-.1 6.966-1.192 12.1-1.3.255-.005.9-.2.31-1.54.75-3.65.108-.407.2-.85m18.25-17.15q-.021-1.09-.1-2.25-.128-1.808-.25-3.3-.332-4.234.35 5.55m23.5-16.4q-.04 1.844.85 7.05.608 1.55 1.05 2.8 4.93 16.662 8 33.3-.028 0 0 .25l13.6 6.15q-.025-2.285-.3-5.15-.08-.015-.15-.05-5.215-2.627-10.75-4.65-.006-2.186-.3-3.05-.162-.529-.45-1.7-.017-.129-.05-.3-.1-.471-.25-1.1-.144-.813-.3-1.75-4.11-20.65-10.95-31.8m-10.4 3.1q-.35 3.75-.5 4.65-.083.597-.2 1.2.116 1.04.2 2.05.879 8.134 1.3 16.1.18 1.691.35 3.25.206 1.377.4 2.65l.2 1.4q.088.432.15.8.27 1.66.55 3.05 1.363.597 5.55 1.55 4.237.96 6.2 1.95v-1.15q-.081-1.815-.2-3.65-.012.01-.05 0-3.392-.897-6.9-1.6-.635-.125-1.3-.25-.225-2.515-.45-4.7-.826-8.644-1.4-11.4-1.095-5.181-1.7-7.95l-.4-1.7q-.95-4.15-1.8-5.9v-.35m-26.75-2.85q.436 5.731.8 10.45 1.072 14.155 1.45 19.1.098 1.259.15 1.9l.05.8q.011.319 0 .65.04.688.05 1.4-.01 1.805-.1 3.85.614-1.876 1.2-3.8.261-.758.5-1.55.209-.686.4-1.4.288-.882.55-1.8.63-2.133 1.25-4.35 2.37-8.459 4.45-14.7.03-.038.05-.1v.1q.027 1.799.05 3.9.026 2.069.05 4.45.196 5.72.5 10.85.07.817.1 1.6.076.744.1 1.45.093.89.15 1.75.117 1.25.2 2.45.201-.061.55-.1h5.1q.136.045 6.8.75.012-1.482 0-2.8.023-.612 0-1.2-5.06-.607-10.35-.8.068-2.189.1-3.05v-.5q0-4.658-.85-12-.812-6.663-1.45-11.2-.525 1.269-1.4 3.35-.222.53-.5 1.1-1.023 2.535-2.5 6.05-.103.246-.2.45-2.5 7.989-3.15 10.95-.022.102-.05.2.343-14.1-4.05-28.2m-31.25-3.45q-.3 2.15-.5 2.15-.435 3.778-1.85 11.3-.706 3.746-1.65 8.4-.95 5.59-1.3 10.3.006.118 0 .2-.15 2.315-.4 4.45-.335 2.913-.85 5.5-3.414 1.038-8.3 2.45-.055.015-.1 0-.268 3.4-.5 6.05 2.094-.591 5.15-1.7 3.519-1.27 6.7-2.55.587-2.34 1.1-5.05l.25-1.45q.267-1.527.5-3.15.334-2.22.6-4.65.124-.901.2-1.85.198-1.614.35-3.3.047-4.43 1-13.6.087-.571.15-1.15.11-.896.2-1.7.4-3.246.6-5.2.124-2.32-.45-2.95-.536-.584-.9-2.5m-59.45 17.5q-3.822 8.076-6.35 16.5 23.803-51.764 63.7-43l-4.15-10.05q-34.885 1.606-53.2 36.55M266.5 88.3q-7.467-9.06-15.55-15.65-4.62-3.775-9.45-6.75-5.251-3.203-10.75-5.45-43.8-17.95-71.5 3.15l8.8 9.05q27.2-21.544 67.2-6.15 16.284 7.431 31.25 21.8z" id="HaiLon012__Symbol_41_0_Layer0_0_FILL"/></defs><use xmlns:xlink="http://www.w3.org/1999/xlink" xlink:href="#HaiLon012__Symbol_71_0_Layer0_0_FILL" transform="translate(95 52.2)" id="HaiLon012__col1n"/><use xmlns:xlink="http://www.w3.org/1999/xlink" xlink:href="#HaiLon012__Symbol_41_0_Layer0_0_FILL" id="HaiLon012__col1d"/></g></g></svg>